<svg width="137" height="137" viewBox="0 0 137 137" fill="none" xmlns="http://www.w3.org/2000/svg">
<path d="M0 0V136.57H136.57V0H0ZM115.18 21.22H21.39C33.41 9.25 49.98 1.84 68.28 1.84C86.58 1.84 103.16 9.24 115.17 21.22H115.18ZM113.85 68.28C113.85 93.44 93.45 113.84 68.29 113.84C43.13 113.84 22.73 93.44 22.73 68.28C22.73 43.12 43.13 22.72 68.29 22.72C93.45 22.72 113.85 43.12 113.85 68.28ZM21.23 21.39V115.18C9.26 103.16 1.85 86.59 1.85 68.29C1.85 49.99 9.25 33.41 21.23 21.4V21.39ZM21.4 115.34H115.19C103.17 127.31 86.6 134.72 68.3 134.72C50 134.72 33.42 127.32 21.41 115.34H21.4ZM115.35 115.17V21.38C127.32 33.4 134.73 49.97 134.73 68.27C134.73 86.57 127.33 103.15 115.35 115.16V115.17Z" fill="#DE1F17"/>
</svg>
